# Blender 4.4.0
# www.blender.org
o Indicator.015
v 0.000000 0.925486 -0.339750
v -0.294232 0.925486 -0.169875
v -0.294232 0.925486 0.169875
v 0.000000 0.925486 0.339750
v 0.294232 0.925486 0.169875
v 0.294232 0.925486 -0.169875
v 0.000000 0.997084 -0.339750
v -0.294232 0.997084 -0.169875
v -0.294232 0.997084 0.169875
v 0.000000 0.997084 0.339750
v 0.294232 0.997084 0.169875
v 0.294232 0.997084 -0.169875
v 0.000000 0.000000 -0.450000
v -0.389711 0.000000 -0.225000
v -0.389711 0.000000 0.225000
v 0.000000 0.000000 0.450000
v 0.389711 0.000000 0.225000
v 0.389711 0.000000 -0.225000
v 0.000000 0.900000 -0.450000
v -0.389711 0.900000 -0.225000
v -0.389711 0.900000 0.225000
v 0.000000 0.900000 0.450000
v 0.389711 0.900000 0.225000
v 0.389711 0.900000 -0.225000
v -0.433013 0.000000 -1.200000
v -0.822724 0.000000 -0.975000
v -0.822724 0.000000 -0.525000
v -0.433013 0.000000 -0.300000
v -0.043301 0.000000 -0.525000
v -0.043301 0.000000 -0.975000
v -0.433013 0.900000 -1.200000
v -0.822724 0.900000 -0.975000
v -0.822724 0.900000 -0.525000
v -0.433013 0.900000 -0.300000
v -0.043301 0.900000 -0.525000
v -0.043301 0.900000 -0.975000
v -0.866025 0.000000 -0.450000
v -1.255737 0.000000 -0.225000
v -1.255737 0.000000 0.225000
v -0.866025 0.000000 0.450000
v -0.476314 0.000000 0.225000
v -0.476314 0.000000 -0.225000
v -0.866025 0.900000 -0.450000
v -1.255737 0.900000 -0.225000
v -1.255737 0.900000 0.225000
v -0.866025 0.900000 0.450000
v -0.476314 0.900000 0.225000
v -0.476314 0.900000 -0.225000
v -0.433013 0.000000 0.300000
v -0.822724 0.000000 0.525000
v -0.822724 0.000000 0.975000
v -0.433013 0.000000 1.200000
v -0.043301 0.000000 0.975000
v -0.043301 0.000000 0.525000
v -0.433013 0.900000 0.300000
v -0.822724 0.900000 0.525000
v -0.822724 0.900000 0.975000
v -0.433013 0.900000 1.200000
v -0.043301 0.900000 0.975000
v -0.043301 0.900000 0.525000
v 0.433013 0.000000 0.300000
v 0.043301 0.000000 0.525000
v 0.043301 0.000000 0.975000
v 0.433013 0.000000 1.200000
v 0.822724 0.000000 0.975000
v 0.822724 0.000000 0.525000
v 0.433013 0.900000 0.300000
v 0.043301 0.900000 0.525000
v 0.043301 0.900000 0.975000
v 0.433013 0.900000 1.200000
v 0.822724 0.900000 0.975000
v 0.822724 0.900000 0.525000
v 0.866025 0.000000 -0.450000
v 0.476314 0.000000 -0.225000
v 0.476314 0.000000 0.225000
v 0.866025 0.000000 0.450000
v 1.255737 0.000000 0.225000
v 1.255737 0.000000 -0.225000
v 0.866025 0.900000 -0.450000
v 0.476314 0.900000 -0.225000
v 0.476314 0.900000 0.225000
v 0.866025 0.900000 0.450000
v 1.255737 0.900000 0.225000
v 1.255737 0.900000 -0.225000
v 0.433013 0.000000 -1.200000
v 0.043301 0.000000 -0.975000
v 0.043301 0.000000 -0.525000
v 0.433013 0.000000 -0.300000
v 0.822724 0.000000 -0.525000
v 0.822724 0.000000 -0.975000
v 0.433013 0.900000 -1.200000
v 0.043301 0.900000 -0.975000
v 0.043301 0.900000 -0.525000
v 0.433013 0.900000 -0.300000
v 0.822724 0.900000 -0.525000
v 0.822724 0.900000 -0.975000
v 0.866025 0.000000 -1.950000
v 0.476314 0.000000 -1.725000
v 0.476314 0.000000 -1.275000
v 0.866025 0.000000 -1.050000
v 1.255737 0.000000 -1.275000
v 1.255737 0.000000 -1.725000
v 0.866025 0.900000 -1.950000
v 0.476314 0.900000 -1.725000
v 0.476314 0.900000 -1.275000
v 0.866025 0.900000 -1.050000
v 1.255737 0.900000 -1.275000
v 1.255737 0.900000 -1.725000
v 1.299038 0.000000 -1.200000
v 0.909327 0.000000 -0.975000
v 0.909327 0.000000 -0.525000
v 1.299038 0.000000 -0.300000
v 1.688750 0.000000 -0.525000
v 1.688750 0.000000 -0.975000
v 1.299038 0.900000 -1.200000
v 0.909327 0.900000 -0.975000
v 0.909327 0.900000 -0.525000
v 1.299038 0.900000 -0.300000
v 1.688750 0.900000 -0.525000
v 1.688750 0.900000 -0.975000
v 1.732051 0.000000 -0.450000
v 1.342340 0.000000 -0.225000
v 1.342340 0.000000 0.225000
v 1.732051 0.000000 0.450000
v 2.121762 0.000000 0.225000
v 2.121762 0.000000 -0.225000
v 1.732051 0.900000 -0.450000
v 1.342340 0.900000 -0.225000
v 1.342340 0.900000 0.225000
v 1.732051 0.900000 0.450000
v 2.121762 0.900000 0.225000
v 2.121762 0.900000 -0.225000
v 1.299038 0.000000 0.300000
v 0.909327 0.000000 0.525000
v 0.909327 0.000000 0.975000
v 1.299038 0.000000 1.200000
v 1.688750 0.000000 0.975000
v 1.688750 0.000000 0.525000
v 1.299038 0.900000 0.300000
v 0.909327 0.900000 0.525000
v 0.909327 0.900000 0.975000
v 1.299038 0.900000 1.200000
v 1.688750 0.900000 0.975000
v 1.688750 0.900000 0.525000
v 0.866025 0.000000 1.050000
v 0.476314 0.000000 1.275000
v 0.476314 0.000000 1.725000
v 0.866025 0.000000 1.950000
v 1.255737 0.000000 1.725000
v 1.255737 0.000000 1.275000
v 0.866025 0.900000 1.050000
v 0.476314 0.900000 1.275000
v 0.476314 0.900000 1.725000
v 0.866025 0.900000 1.950000
v 1.255737 0.900000 1.725000
v 1.255737 0.900000 1.275000
v 0.000000 0.000000 1.050000
v -0.389711 0.000000 1.275000
v -0.389711 0.000000 1.725000
v 0.000000 0.000000 1.950000
v 0.389711 0.000000 1.725000
v 0.389711 0.000000 1.275000
v 0.000000 0.900000 1.050000
v -0.389711 0.900000 1.275000
v -0.389711 0.900000 1.725000
v 0.000000 0.900000 1.950000
v 0.389711 0.900000 1.725000
v 0.389711 0.900000 1.275000
v -0.866025 0.000000 1.050000
v -1.255737 0.000000 1.275000
v -1.255737 0.000000 1.725000
v -0.866025 0.000000 1.950000
v -0.476314 0.000000 1.725000
v -0.476314 0.000000 1.275000
v -0.866025 0.900000 1.050000
v -1.255737 0.900000 1.275000
v -1.255737 0.900000 1.725000
v -0.866025 0.900000 1.950000
v -0.476314 0.900000 1.725000
v -0.476314 0.900000 1.275000
v -1.299038 0.000000 0.300000
v -1.688750 0.000000 0.525000
v -1.688750 0.000000 0.975000
v -1.299038 0.000000 1.200000
v -0.909327 0.000000 0.975000
v -0.909327 0.000000 0.525000
v -1.299038 0.900000 0.300000
v -1.688750 0.900000 0.525000
v -1.688750 0.900000 0.975000
v -1.299038 0.900000 1.200000
v -0.909327 0.900000 0.975000
v -0.909327 0.900000 0.525000
v -1.732051 0.000000 -0.450000
v -2.121762 0.000000 -0.225000
v -2.121762 0.000000 0.225000
v -1.732051 0.000000 0.450000
v -1.342340 0.000000 0.225000
v -1.342340 0.000000 -0.225000
v -1.732051 0.900000 -0.450000
v -2.121762 0.900000 -0.225000
v -2.121762 0.900000 0.225000
v -1.732051 0.900000 0.450000
v -1.342340 0.900000 0.225000
v -1.342340 0.900000 -0.225000
v -1.299038 0.000000 -1.200000
v -1.688750 0.000000 -0.975000
v -1.688750 0.000000 -0.525000
v -1.299038 0.000000 -0.300000
v -0.909327 0.000000 -0.525000
v -0.909327 0.000000 -0.975000
v -1.299038 0.900000 -1.200000
v -1.688750 0.900000 -0.975000
v -1.688750 0.900000 -0.525000
v -1.299038 0.900000 -0.300000
v -0.909327 0.900000 -0.525000
v -0.909327 0.900000 -0.975000
v -0.866025 0.000000 -1.950000
v -1.255737 0.000000 -1.725000
v -1.255737 0.000000 -1.275000
v -0.866025 0.000000 -1.050000
v -0.476314 0.000000 -1.275000
v -0.476314 0.000000 -1.725000
v -0.866025 0.900000 -1.950000
v -1.255737 0.900000 -1.725000
v -1.255737 0.900000 -1.275000
v -0.866025 0.900000 -1.050000
v -0.476314 0.900000 -1.275000
v -0.476314 0.900000 -1.725000
v 0.000000 0.000000 -1.950000
v -0.389711 0.000000 -1.725000
v -0.389711 0.000000 -1.275000
v 0.000000 0.000000 -1.050000
v 0.389711 0.000000 -1.275000
v 0.389711 0.000000 -1.725000
v 0.000000 0.900000 -1.950000
v -0.389711 0.900000 -1.725000
v -0.389711 0.900000 -1.275000
v 0.000000 0.900000 -1.050000
v 0.389711 0.900000 -1.275000
v 0.389711 0.900000 -1.725000
vn -0.0000 -1.0000 -0.0000
vn -0.0000 1.0000 -0.0000
vn 0.5000 -0.0000 -0.8660
vn 1.0000 -0.0000 -0.0000
vn -0.5000 -0.0000 0.8660
vn -0.5000 -0.0000 -0.8660
vn 0.5000 -0.0000 0.8660
vn -1.0000 -0.0000 -0.0000
vt 1.000000 0.750000
vt 0.500000 0.000000
vt 0.000000 0.750000
vt 0.500000 1.000000
vt 1.000000 0.250000
vt 0.000000 0.250000
s 0
f 6/1/1 4/2/1 2/3/1
f 8/3/2 10/2/2 12/1/2
f 1/4/3 12/1/3 6/1/3
f 6/1/4 11/5/4 5/5/4
f 4/2/5 9/6/5 3/6/5
f 2/3/6 7/4/6 1/4/6
f 5/5/7 10/2/7 4/2/7
f 3/6/8 8/3/8 2/3/8
f 18/1/1 16/2/1 14/3/1
f 20/3/2 22/2/2 24/1/2
f 13/4/3 24/1/3 18/1/3
f 18/1/4 23/5/4 17/5/4
f 16/2/5 21/6/5 15/6/5
f 14/3/6 19/4/6 13/4/6
f 17/5/7 22/2/7 16/2/7
f 15/6/8 20/3/8 14/3/8
f 30/1/1 28/2/1 26/3/1
f 32/3/2 34/2/2 36/1/2
f 25/4/3 36/1/3 30/1/3
f 30/1/4 35/5/4 29/5/4
f 28/2/5 33/6/5 27/6/5
f 26/3/6 31/4/6 25/4/6
f 29/5/7 34/2/7 28/2/7
f 27/6/8 32/3/8 26/3/8
f 42/1/1 40/2/1 38/3/1
f 44/3/2 46/2/2 48/1/2
f 37/4/3 48/1/3 42/1/3
f 42/1/4 47/5/4 41/5/4
f 40/2/5 45/6/5 39/6/5
f 38/3/6 43/4/6 37/4/6
f 41/5/7 46/2/7 40/2/7
f 39/6/8 44/3/8 38/3/8
f 54/1/1 52/2/1 50/3/1
f 56/3/2 58/2/2 60/1/2
f 49/4/3 60/1/3 54/1/3
f 54/1/4 59/5/4 53/5/4
f 52/2/5 57/6/5 51/6/5
f 50/3/6 55/4/6 49/4/6
f 53/5/7 58/2/7 52/2/7
f 51/6/8 56/3/8 50/3/8
f 66/1/1 64/2/1 62/3/1
f 68/3/2 70/2/2 72/1/2
f 61/4/3 72/1/3 66/1/3
f 66/1/4 71/5/4 65/5/4
f 64/2/5 69/6/5 63/6/5
f 62/3/6 67/4/6 61/4/6
f 65/5/7 70/2/7 64/2/7
f 63/6/8 68/3/8 62/3/8
f 78/1/1 76/2/1 74/3/1
f 80/3/2 82/2/2 84/1/2
f 73/4/3 84/1/3 78/1/3
f 78/1/4 83/5/4 77/5/4
f 76/2/5 81/6/5 75/6/5
f 74/3/6 79/4/6 73/4/6
f 77/5/7 82/2/7 76/2/7
f 75/6/8 80/3/8 74/3/8
f 90/1/1 88/2/1 86/3/1
f 92/3/2 94/2/2 96/1/2
f 85/4/3 96/1/3 90/1/3
f 90/1/4 95/5/4 89/5/4
f 88/2/5 93/6/5 87/6/5
f 86/3/6 91/4/6 85/4/6
f 89/5/7 94/2/7 88/2/7
f 87/6/8 92/3/8 86/3/8
f 102/1/1 100/2/1 98/3/1
f 104/3/2 106/2/2 108/1/2
f 97/4/3 108/1/3 102/1/3
f 102/1/4 107/5/4 101/5/4
f 100/2/5 105/6/5 99/6/5
f 98/3/6 103/4/6 97/4/6
f 101/5/7 106/2/7 100/2/7
f 99/6/8 104/3/8 98/3/8
f 114/1/1 112/2/1 110/3/1
f 116/3/2 118/2/2 120/1/2
f 109/4/3 120/1/3 114/1/3
f 114/1/4 119/5/4 113/5/4
f 112/2/5 117/6/5 111/6/5
f 110/3/6 115/4/6 109/4/6
f 113/5/7 118/2/7 112/2/7
f 111/6/8 116/3/8 110/3/8
f 126/1/1 124/2/1 122/3/1
f 128/3/2 130/2/2 132/1/2
f 121/4/3 132/1/3 126/1/3
f 126/1/4 131/5/4 125/5/4
f 124/2/5 129/6/5 123/6/5
f 122/3/6 127/4/6 121/4/6
f 125/5/7 130/2/7 124/2/7
f 123/6/8 128/3/8 122/3/8
f 138/1/1 136/2/1 134/3/1
f 140/3/2 142/2/2 144/1/2
f 133/4/3 144/1/3 138/1/3
f 138/1/4 143/5/4 137/5/4
f 136/2/5 141/6/5 135/6/5
f 134/3/6 139/4/6 133/4/6
f 137/5/7 142/2/7 136/2/7
f 135/6/8 140/3/8 134/3/8
f 150/1/1 148/2/1 146/3/1
f 152/3/2 154/2/2 156/1/2
f 145/4/3 156/1/3 150/1/3
f 150/1/4 155/5/4 149/5/4
f 148/2/5 153/6/5 147/6/5
f 146/3/6 151/4/6 145/4/6
f 149/5/7 154/2/7 148/2/7
f 147/6/8 152/3/8 146/3/8
f 162/1/1 160/2/1 158/3/1
f 164/3/2 166/2/2 168/1/2
f 157/4/3 168/1/3 162/1/3
f 162/1/4 167/5/4 161/5/4
f 160/2/5 165/6/5 159/6/5
f 158/3/6 163/4/6 157/4/6
f 161/5/7 166/2/7 160/2/7
f 159/6/8 164/3/8 158/3/8
f 174/1/1 172/2/1 170/3/1
f 176/3/2 178/2/2 180/1/2
f 169/4/3 180/1/3 174/1/3
f 174/1/4 179/5/4 173/5/4
f 172/2/5 177/6/5 171/6/5
f 170/3/6 175/4/6 169/4/6
f 173/5/7 178/2/7 172/2/7
f 171/6/8 176/3/8 170/3/8
f 186/1/1 184/2/1 182/3/1
f 188/3/2 190/2/2 192/1/2
f 181/4/3 192/1/3 186/1/3
f 186/1/4 191/5/4 185/5/4
f 184/2/5 189/6/5 183/6/5
f 182/3/6 187/4/6 181/4/6
f 185/5/7 190/2/7 184/2/7
f 183/6/8 188/3/8 182/3/8
f 198/1/1 196/2/1 194/3/1
f 200/3/2 202/2/2 204/1/2
f 193/4/3 204/1/3 198/1/3
f 198/1/4 203/5/4 197/5/4
f 196/2/5 201/6/5 195/6/5
f 194/3/6 199/4/6 193/4/6
f 197/5/7 202/2/7 196/2/7
f 195/6/8 200/3/8 194/3/8
f 210/1/1 208/2/1 206/3/1
f 212/3/2 214/2/2 216/1/2
f 205/4/3 216/1/3 210/1/3
f 210/1/4 215/5/4 209/5/4
f 208/2/5 213/6/5 207/6/5
f 206/3/6 211/4/6 205/4/6
f 209/5/7 214/2/7 208/2/7
f 207/6/8 212/3/8 206/3/8
f 222/1/1 220/2/1 218/3/1
f 224/3/2 226/2/2 228/1/2
f 217/4/3 228/1/3 222/1/3
f 222/1/4 227/5/4 221/5/4
f 220/2/5 225/6/5 219/6/5
f 218/3/6 223/4/6 217/4/6
f 221/5/7 226/2/7 220/2/7
f 219/6/8 224/3/8 218/3/8
f 234/1/1 232/2/1 230/3/1
f 236/3/2 238/2/2 240/1/2
f 229/4/3 240/1/3 234/1/3
f 234/1/4 239/5/4 233/5/4
f 232/2/5 237/6/5 231/6/5
f 230/3/6 235/4/6 229/4/6
f 233/5/7 238/2/7 232/2/7
f 231/6/8 236/3/8 230/3/8
f 2/3/1 1/4/1 6/1/1
f 6/1/1 5/5/1 4/2/1
f 4/2/1 3/6/1 2/3/1
f 12/1/2 7/4/2 8/3/2
f 8/3/2 9/6/2 10/2/2
f 10/2/2 11/5/2 12/1/2
f 1/4/3 7/4/3 12/1/3
f 6/1/4 12/1/4 11/5/4
f 4/2/5 10/2/5 9/6/5
f 2/3/6 8/3/6 7/4/6
f 5/5/7 11/5/7 10/2/7
f 3/6/8 9/6/8 8/3/8
f 14/3/1 13/4/1 18/1/1
f 18/1/1 17/5/1 16/2/1
f 16/2/1 15/6/1 14/3/1
f 24/1/2 19/4/2 20/3/2
f 20/3/2 21/6/2 22/2/2
f 22/2/2 23/5/2 24/1/2
f 13/4/3 19/4/3 24/1/3
f 18/1/4 24/1/4 23/5/4
f 16/2/5 22/2/5 21/6/5
f 14/3/6 20/3/6 19/4/6
f 17/5/7 23/5/7 22/2/7
f 15/6/8 21/6/8 20/3/8
f 26/3/1 25/4/1 30/1/1
f 30/1/1 29/5/1 28/2/1
f 28/2/1 27/6/1 26/3/1
f 36/1/2 31/4/2 32/3/2
f 32/3/2 33/6/2 34/2/2
f 34/2/2 35/5/2 36/1/2
f 25/4/3 31/4/3 36/1/3
f 30/1/4 36/1/4 35/5/4
f 28/2/5 34/2/5 33/6/5
f 26/3/6 32/3/6 31/4/6
f 29/5/7 35/5/7 34/2/7
f 27/6/8 33/6/8 32/3/8
f 38/3/1 37/4/1 42/1/1
f 42/1/1 41/5/1 40/2/1
f 40/2/1 39/6/1 38/3/1
f 48/1/2 43/4/2 44/3/2
f 44/3/2 45/6/2 46/2/2
f 46/2/2 47/5/2 48/1/2
f 37/4/3 43/4/3 48/1/3
f 42/1/4 48/1/4 47/5/4
f 40/2/5 46/2/5 45/6/5
f 38/3/6 44/3/6 43/4/6
f 41/5/7 47/5/7 46/2/7
f 39/6/8 45/6/8 44/3/8
f 50/3/1 49/4/1 54/1/1
f 54/1/1 53/5/1 52/2/1
f 52/2/1 51/6/1 50/3/1
f 60/1/2 55/4/2 56/3/2
f 56/3/2 57/6/2 58/2/2
f 58/2/2 59/5/2 60/1/2
f 49/4/3 55/4/3 60/1/3
f 54/1/4 60/1/4 59/5/4
f 52/2/5 58/2/5 57/6/5
f 50/3/6 56/3/6 55/4/6
f 53/5/7 59/5/7 58/2/7
f 51/6/8 57/6/8 56/3/8
f 62/3/1 61/4/1 66/1/1
f 66/1/1 65/5/1 64/2/1
f 64/2/1 63/6/1 62/3/1
f 72/1/2 67/4/2 68/3/2
f 68/3/2 69/6/2 70/2/2
f 70/2/2 71/5/2 72/1/2
f 61/4/3 67/4/3 72/1/3
f 66/1/4 72/1/4 71/5/4
f 64/2/5 70/2/5 69/6/5
f 62/3/6 68/3/6 67/4/6
f 65/5/7 71/5/7 70/2/7
f 63/6/8 69/6/8 68/3/8
f 74/3/1 73/4/1 78/1/1
f 78/1/1 77/5/1 76/2/1
f 76/2/1 75/6/1 74/3/1
f 84/1/2 79/4/2 80/3/2
f 80/3/2 81/6/2 82/2/2
f 82/2/2 83/5/2 84/1/2
f 73/4/3 79/4/3 84/1/3
f 78/1/4 84/1/4 83/5/4
f 76/2/5 82/2/5 81/6/5
f 74/3/6 80/3/6 79/4/6
f 77/5/7 83/5/7 82/2/7
f 75/6/8 81/6/8 80/3/8
f 86/3/1 85/4/1 90/1/1
f 90/1/1 89/5/1 88/2/1
f 88/2/1 87/6/1 86/3/1
f 96/1/2 91/4/2 92/3/2
f 92/3/2 93/6/2 94/2/2
f 94/2/2 95/5/2 96/1/2
f 85/4/3 91/4/3 96/1/3
f 90/1/4 96/1/4 95/5/4
f 88/2/5 94/2/5 93/6/5
f 86/3/6 92/3/6 91/4/6
f 89/5/7 95/5/7 94/2/7
f 87/6/8 93/6/8 92/3/8
f 98/3/1 97/4/1 102/1/1
f 102/1/1 101/5/1 100/2/1
f 100/2/1 99/6/1 98/3/1
f 108/1/2 103/4/2 104/3/2
f 104/3/2 105/6/2 106/2/2
f 106/2/2 107/5/2 108/1/2
f 97/4/3 103/4/3 108/1/3
f 102/1/4 108/1/4 107/5/4
f 100/2/5 106/2/5 105/6/5
f 98/3/6 104/3/6 103/4/6
f 101/5/7 107/5/7 106/2/7
f 99/6/8 105/6/8 104/3/8
f 110/3/1 109/4/1 114/1/1
f 114/1/1 113/5/1 112/2/1
f 112/2/1 111/6/1 110/3/1
f 120/1/2 115/4/2 116/3/2
f 116/3/2 117/6/2 118/2/2
f 118/2/2 119/5/2 120/1/2
f 109/4/3 115/4/3 120/1/3
f 114/1/4 120/1/4 119/5/4
f 112/2/5 118/2/5 117/6/5
f 110/3/6 116/3/6 115/4/6
f 113/5/7 119/5/7 118/2/7
f 111/6/8 117/6/8 116/3/8
f 122/3/1 121/4/1 126/1/1
f 126/1/1 125/5/1 124/2/1
f 124/2/1 123/6/1 122/3/1
f 132/1/2 127/4/2 128/3/2
f 128/3/2 129/6/2 130/2/2
f 130/2/2 131/5/2 132/1/2
f 121/4/3 127/4/3 132/1/3
f 126/1/4 132/1/4 131/5/4
f 124/2/5 130/2/5 129/6/5
f 122/3/6 128/3/6 127/4/6
f 125/5/7 131/5/7 130/2/7
f 123/6/8 129/6/8 128/3/8
f 134/3/1 133/4/1 138/1/1
f 138/1/1 137/5/1 136/2/1
f 136/2/1 135/6/1 134/3/1
f 144/1/2 139/4/2 140/3/2
f 140/3/2 141/6/2 142/2/2
f 142/2/2 143/5/2 144/1/2
f 133/4/3 139/4/3 144/1/3
f 138/1/4 144/1/4 143/5/4
f 136/2/5 142/2/5 141/6/5
f 134/3/6 140/3/6 139/4/6
f 137/5/7 143/5/7 142/2/7
f 135/6/8 141/6/8 140/3/8
f 146/3/1 145/4/1 150/1/1
f 150/1/1 149/5/1 148/2/1
f 148/2/1 147/6/1 146/3/1
f 156/1/2 151/4/2 152/3/2
f 152/3/2 153/6/2 154/2/2
f 154/2/2 155/5/2 156/1/2
f 145/4/3 151/4/3 156/1/3
f 150/1/4 156/1/4 155/5/4
f 148/2/5 154/2/5 153/6/5
f 146/3/6 152/3/6 151/4/6
f 149/5/7 155/5/7 154/2/7
f 147/6/8 153/6/8 152/3/8
f 158/3/1 157/4/1 162/1/1
f 162/1/1 161/5/1 160/2/1
f 160/2/1 159/6/1 158/3/1
f 168/1/2 163/4/2 164/3/2
f 164/3/2 165/6/2 166/2/2
f 166/2/2 167/5/2 168/1/2
f 157/4/3 163/4/3 168/1/3
f 162/1/4 168/1/4 167/5/4
f 160/2/5 166/2/5 165/6/5
f 158/3/6 164/3/6 163/4/6
f 161/5/7 167/5/7 166/2/7
f 159/6/8 165/6/8 164/3/8
f 170/3/1 169/4/1 174/1/1
f 174/1/1 173/5/1 172/2/1
f 172/2/1 171/6/1 170/3/1
f 180/1/2 175/4/2 176/3/2
f 176/3/2 177/6/2 178/2/2
f 178/2/2 179/5/2 180/1/2
f 169/4/3 175/4/3 180/1/3
f 174/1/4 180/1/4 179/5/4
f 172/2/5 178/2/5 177/6/5
f 170/3/6 176/3/6 175/4/6
f 173/5/7 179/5/7 178/2/7
f 171/6/8 177/6/8 176/3/8
f 182/3/1 181/4/1 186/1/1
f 186/1/1 185/5/1 184/2/1
f 184/2/1 183/6/1 182/3/1
f 192/1/2 187/4/2 188/3/2
f 188/3/2 189/6/2 190/2/2
f 190/2/2 191/5/2 192/1/2
f 181/4/3 187/4/3 192/1/3
f 186/1/4 192/1/4 191/5/4
f 184/2/5 190/2/5 189/6/5
f 182/3/6 188/3/6 187/4/6
f 185/5/7 191/5/7 190/2/7
f 183/6/8 189/6/8 188/3/8
f 194/3/1 193/4/1 198/1/1
f 198/1/1 197/5/1 196/2/1
f 196/2/1 195/6/1 194/3/1
f 204/1/2 199/4/2 200/3/2
f 200/3/2 201/6/2 202/2/2
f 202/2/2 203/5/2 204/1/2
f 193/4/3 199/4/3 204/1/3
f 198/1/4 204/1/4 203/5/4
f 196/2/5 202/2/5 201/6/5
f 194/3/6 200/3/6 199/4/6
f 197/5/7 203/5/7 202/2/7
f 195/6/8 201/6/8 200/3/8
f 206/3/1 205/4/1 210/1/1
f 210/1/1 209/5/1 208/2/1
f 208/2/1 207/6/1 206/3/1
f 216/1/2 211/4/2 212/3/2
f 212/3/2 213/6/2 214/2/2
f 214/2/2 215/5/2 216/1/2
f 205/4/3 211/4/3 216/1/3
f 210/1/4 216/1/4 215/5/4
f 208/2/5 214/2/5 213/6/5
f 206/3/6 212/3/6 211/4/6
f 209/5/7 215/5/7 214/2/7
f 207/6/8 213/6/8 212/3/8
f 218/3/1 217/4/1 222/1/1
f 222/1/1 221/5/1 220/2/1
f 220/2/1 219/6/1 218/3/1
f 228/1/2 223/4/2 224/3/2
f 224/3/2 225/6/2 226/2/2
f 226/2/2 227/5/2 228/1/2
f 217/4/3 223/4/3 228/1/3
f 222/1/4 228/1/4 227/5/4
f 220/2/5 226/2/5 225/6/5
f 218/3/6 224/3/6 223/4/6
f 221/5/7 227/5/7 226/2/7
f 219/6/8 225/6/8 224/3/8
f 230/3/1 229/4/1 234/1/1
f 234/1/1 233/5/1 232/2/1
f 232/2/1 231/6/1 230/3/1
f 240/1/2 235/4/2 236/3/2
f 236/3/2 237/6/2 238/2/2
f 238/2/2 239/5/2 240/1/2
f 229/4/3 235/4/3 240/1/3
f 234/1/4 240/1/4 239/5/4
f 232/2/5 238/2/5 237/6/5
f 230/3/6 236/3/6 235/4/6
f 233/5/7 239/5/7 238/2/7
f 231/6/8 237/6/8 236/3/8
