# Blender 4.5.4 LTS
# www.blender.org
o Indicator.036
v 0.000000 0.925486 -0.339750
v -0.294232 0.925486 -0.169875
v -0.294232 0.925486 0.169875
v 0.000000 0.925486 0.339750
v 0.294232 0.925486 0.169875
v 0.294232 0.925486 -0.169875
v 0.000000 0.997084 -0.339750
v -0.294232 0.997084 -0.169875
v -0.294232 0.997084 0.169875
v 0.000000 0.997084 0.339750
v 0.294232 0.997084 0.169875
v 0.294232 0.997084 -0.169875
v 0.000000 0.000000 -0.450000
v -0.389711 0.000000 -0.225000
v -0.389711 0.000000 0.225000
v 0.000000 0.000000 0.450000
v 0.389711 0.000000 0.225000
v 0.389711 0.000000 -0.225000
v 0.000000 0.900000 -0.450000
v -0.389711 0.900000 -0.225000
v -0.389711 0.900000 0.225000
v 0.000000 0.900000 0.450000
v 0.389711 0.900000 0.225000
v 0.389711 0.900000 -0.225000
v 0.433013 0.000000 -1.200000
v 0.043301 0.000000 -0.975000
v 0.043301 0.000000 -0.525000
v 0.433013 0.000000 -0.300000
v 0.822724 0.000000 -0.525000
v 0.822724 0.000000 -0.975000
v 0.433013 0.900000 -1.200000
v 0.043301 0.900000 -0.975000
v 0.043301 0.900000 -0.525000
v 0.433013 0.900000 -0.300000
v 0.822724 0.900000 -0.525000
v 0.822724 0.900000 -0.975000
v -0.433013 0.000000 -1.200000
v -0.822724 0.000000 -0.975000
v -0.822724 0.000000 -0.525000
v -0.433013 0.000000 -0.300000
v -0.043301 0.000000 -0.525000
v -0.043301 0.000000 -0.975000
v -0.433013 0.900000 -1.200000
v -0.822724 0.900000 -0.975000
v -0.822724 0.900000 -0.525000
v -0.433013 0.900000 -0.300000
v -0.043301 0.900000 -0.525000
v -0.043301 0.900000 -0.975000
v -0.866025 0.000000 -0.450000
v -1.255737 0.000000 -0.225000
v -1.255737 0.000000 0.225000
v -0.866025 0.000000 0.450000
v -0.476314 0.000000 0.225000
v -0.476314 0.000000 -0.225000
v -0.866025 0.900000 -0.450000
v -1.255737 0.900000 -0.225000
v -1.255737 0.900000 0.225000
v -0.866025 0.900000 0.450000
v -0.476314 0.900000 0.225000
v -0.476314 0.900000 -0.225000
v 0.866025 0.000000 -0.450000
v 0.476314 0.000000 -0.225000
v 0.476314 0.000000 0.225000
v 0.866025 0.000000 0.450000
v 1.255737 0.000000 0.225000
v 1.255737 0.000000 -0.225000
v 0.866025 0.900000 -0.450000
v 0.476314 0.900000 -0.225000
v 0.476314 0.900000 0.225000
v 0.866025 0.900000 0.450000
v 1.255737 0.900000 0.225000
v 1.255737 0.900000 -0.225000
v 1.299038 0.000000 -1.200000
v 0.909327 0.000000 -0.975000
v 0.909327 0.000000 -0.525000
v 1.299038 0.000000 -0.300000
v 1.688750 0.000000 -0.525000
v 1.688750 0.000000 -0.975000
v 1.299038 0.900000 -1.200000
v 0.909327 0.900000 -0.975000
v 0.909327 0.900000 -0.525000
v 1.299038 0.900000 -0.300000
v 1.688750 0.900000 -0.525000
v 1.688750 0.900000 -0.975000
v -1.299038 0.000000 0.300000
v -1.688750 0.000000 0.525000
v -1.688750 0.000000 0.975000
v -1.299038 0.000000 1.200000
v -0.909327 0.000000 0.975000
v -0.909327 0.000000 0.525000
v -1.299038 0.900000 0.300000
v -1.688750 0.900000 0.525000
v -1.688750 0.900000 0.975000
v -1.299038 0.900000 1.200000
v -0.909327 0.900000 0.975000
v -0.909327 0.900000 0.525000
v -0.433013 0.000000 0.300000
v -0.822724 0.000000 0.525000
v -0.822724 0.000000 0.975000
v -0.433013 0.000000 1.200000
v -0.043301 0.000000 0.975000
v -0.043301 0.000000 0.525000
v -0.433013 0.900000 0.300000
v -0.822724 0.900000 0.525000
v -0.822724 0.900000 0.975000
v -0.433013 0.900000 1.200000
v -0.043301 0.900000 0.975000
v -0.043301 0.900000 0.525000
v 0.433013 0.000000 0.300000
v 0.043301 0.000000 0.525000
v 0.043301 0.000000 0.975000
v 0.433013 0.000000 1.200000
v 0.822724 0.000000 0.975000
v 0.822724 0.000000 0.525000
v 0.433013 0.900000 0.300000
v 0.043301 0.900000 0.525000
v 0.043301 0.900000 0.975000
v 0.433013 0.900000 1.200000
v 0.822724 0.900000 0.975000
v 0.822724 0.900000 0.525000
v 0.000000 0.000000 -1.950000
v -0.389711 0.000000 -1.725000
v -0.389711 0.000000 -1.275000
v 0.000000 0.000000 -1.050000
v 0.389711 0.000000 -1.275000
v 0.389711 0.000000 -1.725000
v 0.000000 0.900000 -1.950000
v -0.389711 0.900000 -1.725000
v -0.389711 0.900000 -1.275000
v 0.000000 0.900000 -1.050000
v 0.389711 0.900000 -1.275000
v 0.389711 0.900000 -1.725000
v 0.866025 0.000000 -1.950000
v 0.476314 0.000000 -1.725000
v 0.476314 0.000000 -1.275000
v 0.866025 0.000000 -1.050000
v 1.255737 0.000000 -1.275000
v 1.255737 0.000000 -1.725000
v 0.866025 0.900000 -1.950000
v 0.476314 0.900000 -1.725000
v 0.476314 0.900000 -1.275000
v 0.866025 0.900000 -1.050000
v 1.255737 0.900000 -1.275000
v 1.255737 0.900000 -1.725000
v 1.732051 0.000000 -1.950000
v 1.342340 0.000000 -1.725000
v 1.342340 0.000000 -1.275000
v 1.732051 0.000000 -1.050000
v 2.121762 0.000000 -1.275000
v 2.121762 0.000000 -1.725000
v 1.732051 0.900000 -1.950000
v 1.342340 0.900000 -1.725000
v 1.342340 0.900000 -1.275000
v 1.732051 0.900000 -1.050000
v 2.121762 0.900000 -1.275000
v 2.121762 0.900000 -1.725000
v 2.598076 0.000000 -1.950000
v 2.208365 0.000000 -1.725000
v 2.208365 0.000000 -1.275000
v 2.598076 0.000000 -1.050000
v 2.987788 0.000000 -1.275000
v 2.987788 0.000000 -1.725000
v 2.598076 0.900000 -1.950000
v 2.208365 0.900000 -1.725000
v 2.208365 0.900000 -1.275000
v 2.598076 0.900000 -1.050000
v 2.987788 0.900000 -1.275000
v 2.987788 0.900000 -1.725000
v 2.165064 0.000000 -1.200000
v 1.775352 0.000000 -0.975000
v 1.775352 0.000000 -0.525000
v 2.165064 0.000000 -0.300000
v 2.554775 0.000000 -0.525000
v 2.554775 0.000000 -0.975000
v 2.165064 0.900000 -1.200000
v 1.775352 0.900000 -0.975000
v 1.775352 0.900000 -0.525000
v 2.165064 0.900000 -0.300000
v 2.554775 0.900000 -0.525000
v 2.554775 0.900000 -0.975000
v 1.732051 0.000000 -0.450000
v 1.342340 0.000000 -0.225000
v 1.342340 0.000000 0.225000
v 1.732051 0.000000 0.450000
v 2.121762 0.000000 0.225000
v 2.121762 0.000000 -0.225000
v 1.732051 0.900000 -0.450000
v 1.342340 0.900000 -0.225000
v 1.342340 0.900000 0.225000
v 1.732051 0.900000 0.450000
v 2.121762 0.900000 0.225000
v 2.121762 0.900000 -0.225000
v 1.299038 0.000000 0.300000
v 0.909327 0.000000 0.525000
v 0.909327 0.000000 0.975000
v 1.299038 0.000000 1.200000
v 1.688750 0.000000 0.975000
v 1.688750 0.000000 0.525000
v 1.299038 0.900000 0.300000
v 0.909327 0.900000 0.525000
v 0.909327 0.900000 0.975000
v 1.299038 0.900000 1.200000
v 1.688750 0.900000 0.975000
v 1.688750 0.900000 0.525000
v -0.866025 0.000000 -1.950000
v -1.255737 0.000000 -1.725000
v -1.255737 0.000000 -1.275000
v -0.866025 0.000000 -1.050000
v -0.476314 0.000000 -1.275000
v -0.476314 0.000000 -1.725000
v -0.866025 0.900000 -1.950000
v -1.255737 0.900000 -1.725000
v -1.255737 0.900000 -1.275000
v -0.866025 0.900000 -1.050000
v -0.476314 0.900000 -1.275000
v -0.476314 0.900000 -1.725000
v -1.299038 0.000000 -1.200000
v -1.688750 0.000000 -0.975000
v -1.688750 0.000000 -0.525000
v -1.299038 0.000000 -0.300000
v -0.909327 0.000000 -0.525000
v -0.909327 0.000000 -0.975000
v -1.299038 0.900000 -1.200000
v -1.688750 0.900000 -0.975000
v -1.688750 0.900000 -0.525000
v -1.299038 0.900000 -0.300000
v -0.909327 0.900000 -0.525000
v -0.909327 0.900000 -0.975000
v -1.732051 0.000000 -0.450000
v -2.121762 0.000000 -0.225000
v -2.121762 0.000000 0.225000
v -1.732051 0.000000 0.450000
v -1.342340 0.000000 0.225000
v -1.342340 0.000000 -0.225000
v -1.732051 0.900000 -0.450000
v -2.121762 0.900000 -0.225000
v -2.121762 0.900000 0.225000
v -1.732051 0.900000 0.450000
v -1.342340 0.900000 0.225000
v -1.342340 0.900000 -0.225000
v -2.165064 0.000000 0.300000
v -2.554775 0.000000 0.525000
v -2.554775 0.000000 0.975000
v -2.165064 0.000000 1.200000
v -1.775352 0.000000 0.975000
v -1.775352 0.000000 0.525000
v -2.165064 0.900000 0.300000
v -2.554775 0.900000 0.525000
v -2.554775 0.900000 0.975000
v -2.165064 0.900000 1.200000
v -1.775352 0.900000 0.975000
v -1.775352 0.900000 0.525000
v -2.598076 0.000000 1.050000
v -2.987788 0.000000 1.275000
v -2.987788 0.000000 1.725000
v -2.598076 0.000000 1.950000
v -2.208365 0.000000 1.725000
v -2.208365 0.000000 1.275000
v -2.598076 0.900000 1.050000
v -2.987788 0.900000 1.275000
v -2.987788 0.900000 1.725000
v -2.598076 0.900000 1.950000
v -2.208365 0.900000 1.725000
v -2.208365 0.900000 1.275000
v -1.732051 0.000000 1.050000
v -2.121762 0.000000 1.275000
v -2.121762 0.000000 1.725000
v -1.732051 0.000000 1.950000
v -1.342340 0.000000 1.725000
v -1.342340 0.000000 1.275000
v -1.732051 0.900000 1.050000
v -2.121762 0.900000 1.275000
v -2.121762 0.900000 1.725000
v -1.732051 0.900000 1.950000
v -1.342340 0.900000 1.725000
v -1.342340 0.900000 1.275000
v -0.866025 0.000000 1.050000
v -1.255737 0.000000 1.275000
v -1.255737 0.000000 1.725000
v -0.866025 0.000000 1.950000
v -0.476314 0.000000 1.725000
v -0.476314 0.000000 1.275000
v -0.866025 0.900000 1.050000
v -1.255737 0.900000 1.275000
v -1.255737 0.900000 1.725000
v -0.866025 0.900000 1.950000
v -0.476314 0.900000 1.725000
v -0.476314 0.900000 1.275000
v 0.000000 0.000000 1.050000
v -0.389711 0.000000 1.275000
v -0.389711 0.000000 1.725000
v 0.000000 0.000000 1.950000
v 0.389711 0.000000 1.725000
v 0.389711 0.000000 1.275000
v 0.000000 0.900000 1.050000
v -0.389711 0.900000 1.275000
v -0.389711 0.900000 1.725000
v 0.000000 0.900000 1.950000
v 0.389711 0.900000 1.725000
v 0.389711 0.900000 1.275000
v 0.866025 0.000000 1.050000
v 0.476314 0.000000 1.275000
v 0.476314 0.000000 1.725000
v 0.866025 0.000000 1.950000
v 1.255737 0.000000 1.725000
v 1.255737 0.000000 1.275000
v 0.866025 0.900000 1.050000
v 0.476314 0.900000 1.275000
v 0.476314 0.900000 1.725000
v 0.866025 0.900000 1.950000
v 1.255737 0.900000 1.725000
v 1.255737 0.900000 1.275000
vn -0.0000 -1.0000 -0.0000
vn -0.0000 1.0000 -0.0000
vn 0.5000 -0.0000 -0.8660
vn 1.0000 -0.0000 -0.0000
vn -0.5000 -0.0000 0.8660
vn -0.5000 -0.0000 -0.8660
vn 0.5000 -0.0000 0.8660
vn -1.0000 -0.0000 -0.0000
vt 0.500000 0.000000
vt 0.000000 0.250000
vt 0.000000 0.750000
vt 1.000000 0.250000
vt 1.000000 0.750000
vt 0.500000 1.000000
s 0
f 4/1/1 3/2/1 2/3/1
f 10/1/2 11/4/2 12/5/2
f 1/6/3 12/5/3 6/5/3
f 6/5/4 11/4/4 5/4/4
f 4/1/5 9/2/5 3/2/5
f 2/3/6 7/6/6 1/6/6
f 5/4/7 10/1/7 4/1/7
f 3/2/8 8/3/8 2/3/8
f 18/5/1 16/1/1 14/3/1
f 20/3/2 22/1/2 24/5/2
f 13/6/3 24/5/3 18/5/3
f 18/5/4 23/4/4 17/4/4
f 16/1/5 21/2/5 15/2/5
f 14/3/6 19/6/6 13/6/6
f 17/4/7 22/1/7 16/1/7
f 15/2/8 20/3/8 14/3/8
f 30/5/1 28/1/1 26/3/1
f 32/3/2 34/1/2 36/5/2
f 25/6/3 36/5/3 30/5/3
f 30/5/4 35/4/4 29/4/4
f 28/1/5 33/2/5 27/2/5
f 26/3/6 31/6/6 25/6/6
f 29/4/7 34/1/7 28/1/7
f 27/2/8 32/3/8 26/3/8
f 42/5/1 40/1/1 38/3/1
f 44/3/2 46/1/2 48/5/2
f 37/6/3 48/5/3 42/5/3
f 42/5/4 47/4/4 41/4/4
f 40/1/5 45/2/5 39/2/5
f 38/3/6 43/6/6 37/6/6
f 41/4/7 46/1/7 40/1/7
f 39/2/8 44/3/8 38/3/8
f 54/5/1 52/1/1 50/3/1
f 56/3/2 58/1/2 60/5/2
f 49/6/3 60/5/3 54/5/3
f 54/5/4 59/4/4 53/4/4
f 52/1/5 57/2/5 51/2/5
f 50/3/6 55/6/6 49/6/6
f 53/4/7 58/1/7 52/1/7
f 51/2/8 56/3/8 50/3/8
f 66/5/1 64/1/1 62/3/1
f 68/3/2 70/1/2 72/5/2
f 61/6/3 72/5/3 66/5/3
f 66/5/4 71/4/4 65/4/4
f 64/1/5 69/2/5 63/2/5
f 62/3/6 67/6/6 61/6/6
f 65/4/7 70/1/7 64/1/7
f 63/2/8 68/3/8 62/3/8
f 78/5/1 76/1/1 74/3/1
f 80/3/2 82/1/2 84/5/2
f 73/6/3 84/5/3 78/5/3
f 78/5/4 83/4/4 77/4/4
f 76/1/5 81/2/5 75/2/5
f 74/3/6 79/6/6 73/6/6
f 77/4/7 82/1/7 76/1/7
f 75/2/8 80/3/8 74/3/8
f 90/5/1 88/1/1 86/3/1
f 92/3/2 94/1/2 96/5/2
f 85/6/3 96/5/3 90/5/3
f 90/5/4 95/4/4 89/4/4
f 88/1/5 93/2/5 87/2/5
f 86/3/6 91/6/6 85/6/6
f 89/4/7 94/1/7 88/1/7
f 87/2/8 92/3/8 86/3/8
f 102/5/1 100/1/1 98/3/1
f 104/3/2 106/1/2 108/5/2
f 97/6/3 108/5/3 102/5/3
f 102/5/4 107/4/4 101/4/4
f 100/1/5 105/2/5 99/2/5
f 98/3/6 103/6/6 97/6/6
f 101/4/7 106/1/7 100/1/7
f 99/2/8 104/3/8 98/3/8
f 114/5/1 112/1/1 110/3/1
f 116/3/2 118/1/2 120/5/2
f 109/6/3 120/5/3 114/5/3
f 114/5/4 119/4/4 113/4/4
f 112/1/5 117/2/5 111/2/5
f 110/3/6 115/6/6 109/6/6
f 113/4/7 118/1/7 112/1/7
f 111/2/8 116/3/8 110/3/8
f 126/5/1 124/1/1 122/3/1
f 128/3/2 130/1/2 132/5/2
f 121/6/3 132/5/3 126/5/3
f 126/5/4 131/4/4 125/4/4
f 124/1/5 129/2/5 123/2/5
f 122/3/6 127/6/6 121/6/6
f 125/4/7 130/1/7 124/1/7
f 123/2/8 128/3/8 122/3/8
f 138/5/1 136/1/1 134/3/1
f 140/3/2 142/1/2 144/5/2
f 133/6/3 144/5/3 138/5/3
f 138/5/4 143/4/4 137/4/4
f 136/1/5 141/2/5 135/2/5
f 134/3/6 139/6/6 133/6/6
f 137/4/7 142/1/7 136/1/7
f 135/2/8 140/3/8 134/3/8
f 150/5/1 148/1/1 146/3/1
f 152/3/2 154/1/2 156/5/2
f 145/6/3 156/5/3 150/5/3
f 150/5/4 155/4/4 149/4/4
f 148/1/5 153/2/5 147/2/5
f 146/3/6 151/6/6 145/6/6
f 149/4/7 154/1/7 148/1/7
f 147/2/8 152/3/8 146/3/8
f 162/5/1 160/1/1 158/3/1
f 164/3/2 166/1/2 168/5/2
f 157/6/3 168/5/3 162/5/3
f 162/5/4 167/4/4 161/4/4
f 160/1/5 165/2/5 159/2/5
f 158/3/6 163/6/6 157/6/6
f 161/4/7 166/1/7 160/1/7
f 159/2/8 164/3/8 158/3/8
f 174/5/1 172/1/1 170/3/1
f 176/3/2 178/1/2 180/5/2
f 169/6/3 180/5/3 174/5/3
f 174/5/4 179/4/4 173/4/4
f 172/1/5 177/2/5 171/2/5
f 170/3/6 175/6/6 169/6/6
f 173/4/7 178/1/7 172/1/7
f 171/2/8 176/3/8 170/3/8
f 186/5/1 184/1/1 182/3/1
f 188/3/2 190/1/2 192/5/2
f 181/6/3 192/5/3 186/5/3
f 186/5/4 191/4/4 185/4/4
f 184/1/5 189/2/5 183/2/5
f 182/3/6 187/6/6 181/6/6
f 185/4/7 190/1/7 184/1/7
f 183/2/8 188/3/8 182/3/8
f 198/5/1 196/1/1 194/3/1
f 200/3/2 202/1/2 204/5/2
f 193/6/3 204/5/3 198/5/3
f 198/5/4 203/4/4 197/4/4
f 196/1/5 201/2/5 195/2/5
f 194/3/6 199/6/6 193/6/6
f 197/4/7 202/1/7 196/1/7
f 195/2/8 200/3/8 194/3/8
f 210/5/1 208/1/1 206/3/1
f 212/3/2 214/1/2 216/5/2
f 205/6/3 216/5/3 210/5/3
f 210/5/4 215/4/4 209/4/4
f 208/1/5 213/2/5 207/2/5
f 206/3/6 211/6/6 205/6/6
f 209/4/7 214/1/7 208/1/7
f 207/2/8 212/3/8 206/3/8
f 222/5/1 220/1/1 218/3/1
f 224/3/2 226/1/2 228/5/2
f 217/6/3 228/5/3 222/5/3
f 222/5/4 227/4/4 221/4/4
f 220/1/5 225/2/5 219/2/5
f 218/3/6 223/6/6 217/6/6
f 221/4/7 226/1/7 220/1/7
f 219/2/8 224/3/8 218/3/8
f 234/5/1 232/1/1 230/3/1
f 236/3/2 238/1/2 240/5/2
f 229/6/3 240/5/3 234/5/3
f 234/5/4 239/4/4 233/4/4
f 232/1/5 237/2/5 231/2/5
f 230/3/6 235/6/6 229/6/6
f 233/4/7 238/1/7 232/1/7
f 231/2/8 236/3/8 230/3/8
f 246/5/1 244/1/1 242/3/1
f 248/3/2 250/1/2 252/5/2
f 241/6/3 252/5/3 246/5/3
f 246/5/4 251/4/4 245/4/4
f 244/1/5 249/2/5 243/2/5
f 242/3/6 247/6/6 241/6/6
f 245/4/7 250/1/7 244/1/7
f 243/2/8 248/3/8 242/3/8
f 255/2/1 254/3/1 258/5/1
f 263/4/2 264/5/2 260/3/2
f 253/6/3 264/5/3 258/5/3
f 258/5/4 263/4/4 257/4/4
f 256/1/5 261/2/5 255/2/5
f 254/3/6 259/6/6 253/6/6
f 257/4/7 262/1/7 256/1/7
f 255/2/8 260/3/8 254/3/8
f 267/2/1 266/3/1 270/5/1
f 275/4/2 276/5/2 272/3/2
f 265/6/3 276/5/3 270/5/3
f 270/5/4 275/4/4 269/4/4
f 268/1/5 273/2/5 267/2/5
f 266/3/6 271/6/6 265/6/6
f 269/4/7 274/1/7 268/1/7
f 267/2/8 272/3/8 266/3/8
f 279/2/1 278/3/1 282/5/1
f 287/4/2 288/5/2 284/3/2
f 277/6/3 288/5/3 282/5/3
f 282/5/4 287/4/4 281/4/4
f 280/1/5 285/2/5 279/2/5
f 278/3/6 283/6/6 277/6/6
f 281/4/7 286/1/7 280/1/7
f 279/2/8 284/3/8 278/3/8
f 291/2/1 290/3/1 294/5/1
f 299/4/2 300/5/2 296/3/2
f 289/6/3 300/5/3 294/5/3
f 294/5/4 299/4/4 293/4/4
f 292/1/5 297/2/5 291/2/5
f 290/3/6 295/6/6 289/6/6
f 293/4/7 298/1/7 292/1/7
f 291/2/8 296/3/8 290/3/8
f 303/2/1 302/3/1 306/5/1
f 311/4/2 312/5/2 308/3/2
f 301/6/3 312/5/3 306/5/3
f 306/5/4 311/4/4 305/4/4
f 304/1/5 309/2/5 303/2/5
f 302/3/6 307/6/6 301/6/6
f 305/4/7 310/1/7 304/1/7
f 303/2/8 308/3/8 302/3/8
f 2/3/1 1/6/1 4/1/1
f 1/6/1 6/5/1 4/1/1
f 6/5/1 5/4/1 4/1/1
f 12/5/2 7/6/2 10/1/2
f 7/6/2 8/3/2 10/1/2
f 8/3/2 9/2/2 10/1/2
f 1/6/3 7/6/3 12/5/3
f 6/5/4 12/5/4 11/4/4
f 4/1/5 10/1/5 9/2/5
f 2/3/6 8/3/6 7/6/6
f 5/4/7 11/4/7 10/1/7
f 3/2/8 9/2/8 8/3/8
f 14/3/1 13/6/1 18/5/1
f 18/5/1 17/4/1 16/1/1
f 16/1/1 15/2/1 14/3/1
f 24/5/2 19/6/2 20/3/2
f 20/3/2 21/2/2 22/1/2
f 22/1/2 23/4/2 24/5/2
f 13/6/3 19/6/3 24/5/3
f 18/5/4 24/5/4 23/4/4
f 16/1/5 22/1/5 21/2/5
f 14/3/6 20/3/6 19/6/6
f 17/4/7 23/4/7 22/1/7
f 15/2/8 21/2/8 20/3/8
f 26/3/1 25/6/1 30/5/1
f 30/5/1 29/4/1 28/1/1
f 28/1/1 27/2/1 26/3/1
f 36/5/2 31/6/2 32/3/2
f 32/3/2 33/2/2 34/1/2
f 34/1/2 35/4/2 36/5/2
f 25/6/3 31/6/3 36/5/3
f 30/5/4 36/5/4 35/4/4
f 28/1/5 34/1/5 33/2/5
f 26/3/6 32/3/6 31/6/6
f 29/4/7 35/4/7 34/1/7
f 27/2/8 33/2/8 32/3/8
f 38/3/1 37/6/1 42/5/1
f 42/5/1 41/4/1 40/1/1
f 40/1/1 39/2/1 38/3/1
f 48/5/2 43/6/2 44/3/2
f 44/3/2 45/2/2 46/1/2
f 46/1/2 47/4/2 48/5/2
f 37/6/3 43/6/3 48/5/3
f 42/5/4 48/5/4 47/4/4
f 40/1/5 46/1/5 45/2/5
f 38/3/6 44/3/6 43/6/6
f 41/4/7 47/4/7 46/1/7
f 39/2/8 45/2/8 44/3/8
f 50/3/1 49/6/1 54/5/1
f 54/5/1 53/4/1 52/1/1
f 52/1/1 51/2/1 50/3/1
f 60/5/2 55/6/2 56/3/2
f 56/3/2 57/2/2 58/1/2
f 58/1/2 59/4/2 60/5/2
f 49/6/3 55/6/3 60/5/3
f 54/5/4 60/5/4 59/4/4
f 52/1/5 58/1/5 57/2/5
f 50/3/6 56/3/6 55/6/6
f 53/4/7 59/4/7 58/1/7
f 51/2/8 57/2/8 56/3/8
f 62/3/1 61/6/1 66/5/1
f 66/5/1 65/4/1 64/1/1
f 64/1/1 63/2/1 62/3/1
f 72/5/2 67/6/2 68/3/2
f 68/3/2 69/2/2 70/1/2
f 70/1/2 71/4/2 72/5/2
f 61/6/3 67/6/3 72/5/3
f 66/5/4 72/5/4 71/4/4
f 64/1/5 70/1/5 69/2/5
f 62/3/6 68/3/6 67/6/6
f 65/4/7 71/4/7 70/1/7
f 63/2/8 69/2/8 68/3/8
f 74/3/1 73/6/1 78/5/1
f 78/5/1 77/4/1 76/1/1
f 76/1/1 75/2/1 74/3/1
f 84/5/2 79/6/2 80/3/2
f 80/3/2 81/2/2 82/1/2
f 82/1/2 83/4/2 84/5/2
f 73/6/3 79/6/3 84/5/3
f 78/5/4 84/5/4 83/4/4
f 76/1/5 82/1/5 81/2/5
f 74/3/6 80/3/6 79/6/6
f 77/4/7 83/4/7 82/1/7
f 75/2/8 81/2/8 80/3/8
f 86/3/1 85/6/1 90/5/1
f 90/5/1 89/4/1 88/1/1
f 88/1/1 87/2/1 86/3/1
f 96/5/2 91/6/2 92/3/2
f 92/3/2 93/2/2 94/1/2
f 94/1/2 95/4/2 96/5/2
f 85/6/3 91/6/3 96/5/3
f 90/5/4 96/5/4 95/4/4
f 88/1/5 94/1/5 93/2/5
f 86/3/6 92/3/6 91/6/6
f 89/4/7 95/4/7 94/1/7
f 87/2/8 93/2/8 92/3/8
f 98/3/1 97/6/1 102/5/1
f 102/5/1 101/4/1 100/1/1
f 100/1/1 99/2/1 98/3/1
f 108/5/2 103/6/2 104/3/2
f 104/3/2 105/2/2 106/1/2
f 106/1/2 107/4/2 108/5/2
f 97/6/3 103/6/3 108/5/3
f 102/5/4 108/5/4 107/4/4
f 100/1/5 106/1/5 105/2/5
f 98/3/6 104/3/6 103/6/6
f 101/4/7 107/4/7 106/1/7
f 99/2/8 105/2/8 104/3/8
f 110/3/1 109/6/1 114/5/1
f 114/5/1 113/4/1 112/1/1
f 112/1/1 111/2/1 110/3/1
f 120/5/2 115/6/2 116/3/2
f 116/3/2 117/2/2 118/1/2
f 118/1/2 119/4/2 120/5/2
f 109/6/3 115/6/3 120/5/3
f 114/5/4 120/5/4 119/4/4
f 112/1/5 118/1/5 117/2/5
f 110/3/6 116/3/6 115/6/6
f 113/4/7 119/4/7 118/1/7
f 111/2/8 117/2/8 116/3/8
f 122/3/1 121/6/1 126/5/1
f 126/5/1 125/4/1 124/1/1
f 124/1/1 123/2/1 122/3/1
f 132/5/2 127/6/2 128/3/2
f 128/3/2 129/2/2 130/1/2
f 130/1/2 131/4/2 132/5/2
f 121/6/3 127/6/3 132/5/3
f 126/5/4 132/5/4 131/4/4
f 124/1/5 130/1/5 129/2/5
f 122/3/6 128/3/6 127/6/6
f 125/4/7 131/4/7 130/1/7
f 123/2/8 129/2/8 128/3/8
f 134/3/1 133/6/1 138/5/1
f 138/5/1 137/4/1 136/1/1
f 136/1/1 135/2/1 134/3/1
f 144/5/2 139/6/2 140/3/2
f 140/3/2 141/2/2 142/1/2
f 142/1/2 143/4/2 144/5/2
f 133/6/3 139/6/3 144/5/3
f 138/5/4 144/5/4 143/4/4
f 136/1/5 142/1/5 141/2/5
f 134/3/6 140/3/6 139/6/6
f 137/4/7 143/4/7 142/1/7
f 135/2/8 141/2/8 140/3/8
f 146/3/1 145/6/1 150/5/1
f 150/5/1 149/4/1 148/1/1
f 148/1/1 147/2/1 146/3/1
f 156/5/2 151/6/2 152/3/2
f 152/3/2 153/2/2 154/1/2
f 154/1/2 155/4/2 156/5/2
f 145/6/3 151/6/3 156/5/3
f 150/5/4 156/5/4 155/4/4
f 148/1/5 154/1/5 153/2/5
f 146/3/6 152/3/6 151/6/6
f 149/4/7 155/4/7 154/1/7
f 147/2/8 153/2/8 152/3/8
f 158/3/1 157/6/1 162/5/1
f 162/5/1 161/4/1 160/1/1
f 160/1/1 159/2/1 158/3/1
f 168/5/2 163/6/2 164/3/2
f 164/3/2 165/2/2 166/1/2
f 166/1/2 167/4/2 168/5/2
f 157/6/3 163/6/3 168/5/3
f 162/5/4 168/5/4 167/4/4
f 160/1/5 166/1/5 165/2/5
f 158/3/6 164/3/6 163/6/6
f 161/4/7 167/4/7 166/1/7
f 159/2/8 165/2/8 164/3/8
f 170/3/1 169/6/1 174/5/1
f 174/5/1 173/4/1 172/1/1
f 172/1/1 171/2/1 170/3/1
f 180/5/2 175/6/2 176/3/2
f 176/3/2 177/2/2 178/1/2
f 178/1/2 179/4/2 180/5/2
f 169/6/3 175/6/3 180/5/3
f 174/5/4 180/5/4 179/4/4
f 172/1/5 178/1/5 177/2/5
f 170/3/6 176/3/6 175/6/6
f 173/4/7 179/4/7 178/1/7
f 171/2/8 177/2/8 176/3/8
f 182/3/1 181/6/1 186/5/1
f 186/5/1 185/4/1 184/1/1
f 184/1/1 183/2/1 182/3/1
f 192/5/2 187/6/2 188/3/2
f 188/3/2 189/2/2 190/1/2
f 190/1/2 191/4/2 192/5/2
f 181/6/3 187/6/3 192/5/3
f 186/5/4 192/5/4 191/4/4
f 184/1/5 190/1/5 189/2/5
f 182/3/6 188/3/6 187/6/6
f 185/4/7 191/4/7 190/1/7
f 183/2/8 189/2/8 188/3/8
f 194/3/1 193/6/1 198/5/1
f 198/5/1 197/4/1 196/1/1
f 196/1/1 195/2/1 194/3/1
f 204/5/2 199/6/2 200/3/2
f 200/3/2 201/2/2 202/1/2
f 202/1/2 203/4/2 204/5/2
f 193/6/3 199/6/3 204/5/3
f 198/5/4 204/5/4 203/4/4
f 196/1/5 202/1/5 201/2/5
f 194/3/6 200/3/6 199/6/6
f 197/4/7 203/4/7 202/1/7
f 195/2/8 201/2/8 200/3/8
f 206/3/1 205/6/1 210/5/1
f 210/5/1 209/4/1 208/1/1
f 208/1/1 207/2/1 206/3/1
f 216/5/2 211/6/2 212/3/2
f 212/3/2 213/2/2 214/1/2
f 214/1/2 215/4/2 216/5/2
f 205/6/3 211/6/3 216/5/3
f 210/5/4 216/5/4 215/4/4
f 208/1/5 214/1/5 213/2/5
f 206/3/6 212/3/6 211/6/6
f 209/4/7 215/4/7 214/1/7
f 207/2/8 213/2/8 212/3/8
f 218/3/1 217/6/1 222/5/1
f 222/5/1 221/4/1 220/1/1
f 220/1/1 219/2/1 218/3/1
f 228/5/2 223/6/2 224/3/2
f 224/3/2 225/2/2 226/1/2
f 226/1/2 227/4/2 228/5/2
f 217/6/3 223/6/3 228/5/3
f 222/5/4 228/5/4 227/4/4
f 220/1/5 226/1/5 225/2/5
f 218/3/6 224/3/6 223/6/6
f 221/4/7 227/4/7 226/1/7
f 219/2/8 225/2/8 224/3/8
f 230/3/1 229/6/1 234/5/1
f 234/5/1 233/4/1 232/1/1
f 232/1/1 231/2/1 230/3/1
f 240/5/2 235/6/2 236/3/2
f 236/3/2 237/2/2 238/1/2
f 238/1/2 239/4/2 240/5/2
f 229/6/3 235/6/3 240/5/3
f 234/5/4 240/5/4 239/4/4
f 232/1/5 238/1/5 237/2/5
f 230/3/6 236/3/6 235/6/6
f 233/4/7 239/4/7 238/1/7
f 231/2/8 237/2/8 236/3/8
f 242/3/1 241/6/1 246/5/1
f 246/5/1 245/4/1 244/1/1
f 244/1/1 243/2/1 242/3/1
f 252/5/2 247/6/2 248/3/2
f 248/3/2 249/2/2 250/1/2
f 250/1/2 251/4/2 252/5/2
f 241/6/3 247/6/3 252/5/3
f 246/5/4 252/5/4 251/4/4
f 244/1/5 250/1/5 249/2/5
f 242/3/6 248/3/6 247/6/6
f 245/4/7 251/4/7 250/1/7
f 243/2/8 249/2/8 248/3/8
f 254/3/1 253/6/1 258/5/1
f 258/5/1 257/4/1 256/1/1
f 256/1/1 255/2/1 258/5/1
f 264/5/2 259/6/2 260/3/2
f 260/3/2 261/2/2 262/1/2
f 262/1/2 263/4/2 260/3/2
f 253/6/3 259/6/3 264/5/3
f 258/5/4 264/5/4 263/4/4
f 256/1/5 262/1/5 261/2/5
f 254/3/6 260/3/6 259/6/6
f 257/4/7 263/4/7 262/1/7
f 255/2/8 261/2/8 260/3/8
f 266/3/1 265/6/1 270/5/1
f 270/5/1 269/4/1 268/1/1
f 268/1/1 267/2/1 270/5/1
f 276/5/2 271/6/2 272/3/2
f 272/3/2 273/2/2 274/1/2
f 274/1/2 275/4/2 272/3/2
f 265/6/3 271/6/3 276/5/3
f 270/5/4 276/5/4 275/4/4
f 268/1/5 274/1/5 273/2/5
f 266/3/6 272/3/6 271/6/6
f 269/4/7 275/4/7 274/1/7
f 267/2/8 273/2/8 272/3/8
f 278/3/1 277/6/1 282/5/1
f 282/5/1 281/4/1 280/1/1
f 280/1/1 279/2/1 282/5/1
f 288/5/2 283/6/2 284/3/2
f 284/3/2 285/2/2 286/1/2
f 286/1/2 287/4/2 284/3/2
f 277/6/3 283/6/3 288/5/3
f 282/5/4 288/5/4 287/4/4
f 280/1/5 286/1/5 285/2/5
f 278/3/6 284/3/6 283/6/6
f 281/4/7 287/4/7 286/1/7
f 279/2/8 285/2/8 284/3/8
f 290/3/1 289/6/1 294/5/1
f 294/5/1 293/4/1 292/1/1
f 292/1/1 291/2/1 294/5/1
f 300/5/2 295/6/2 296/3/2
f 296/3/2 297/2/2 298/1/2
f 298/1/2 299/4/2 296/3/2
f 289/6/3 295/6/3 300/5/3
f 294/5/4 300/5/4 299/4/4
f 292/1/5 298/1/5 297/2/5
f 290/3/6 296/3/6 295/6/6
f 293/4/7 299/4/7 298/1/7
f 291/2/8 297/2/8 296/3/8
f 302/3/1 301/6/1 306/5/1
f 306/5/1 305/4/1 304/1/1
f 304/1/1 303/2/1 306/5/1
f 312/5/2 307/6/2 308/3/2
f 308/3/2 309/2/2 310/1/2
f 310/1/2 311/4/2 308/3/2
f 301/6/3 307/6/3 312/5/3
f 306/5/4 312/5/4 311/4/4
f 304/1/5 310/1/5 309/2/5
f 302/3/6 308/3/6 307/6/6
f 305/4/7 311/4/7 310/1/7
f 303/2/8 309/2/8 308/3/8
