# Blender 4.5.4 LTS
# www.blender.org
mtllib hex_building.mtl
o httpssteamusercontentaakamaihdnetugc118608360225922859287412D68
v 0.000000 -0.000000 -0.499985
v 0.433000 1.000000 -0.249993
v 0.433000 -0.000000 -0.249993
v 0.000000 1.000000 -0.499985
v -0.433000 -0.000000 -0.249993
v -0.433000 1.000000 -0.249993
v -0.433000 0.000000 0.249993
v -0.433000 1.000000 0.249992
v -0.000000 1.000000 0.499985
v -0.000000 0.000000 0.499985
v 0.433000 0.000000 0.249993
v 0.433000 1.000000 0.249992
vn 0.5000 -0.0000 -0.8660
vn -0.5000 -0.0000 -0.8660
vn -1.0000 -0.0000 -0.0000
vn -0.5000 -0.0000 0.8660
vn -0.0000 -1.0000 -0.0000
vn 1.0000 -0.0000 -0.0000
vn -0.0000 1.0000 -0.0000
vn 0.5000 -0.0000 0.8660
vt 0.288675 0.000000
vt -0.866025 0.250000
vt -0.866025 0.000000
vt 0.288675 0.250000
vt -2.020730 0.250000
vt -2.020730 0.000000
vt -0.577350 0.000000
vt -1.732050 0.250000
vt -1.732050 0.000000
vt -0.577350 0.250000
vt -0.288675 0.000000
vt 0.866025 0.250000
vt -0.288675 0.250000
vt 0.866025 0.000000
vt -0.000000 1.732050
vt -1.000000 0.000000
vt 0.000000 0.577350
vt -1.000000 2.309400
vt -2.000000 0.577350
vt -2.000000 1.732050
vt 1.732050 0.000000
vt 0.577350 0.250000
vt 0.577350 0.000000
vt 1.732050 0.250000
vt 1.000000 2.309400
vt 2.000000 0.577350
vt 2.000000 1.732050
vt 1.000000 0.000000
vt 0.000000 1.732050
vt -0.000000 0.577350
vt 2.020730 0.250000
vt 2.020730 0.000000
s 1
usemtl FrontColor
f 1/1/1 2/2/1 3/3/1
f 2/2/1 1/1/1 4/4/1
f 5/3/2 4/5/2 1/6/2
f 4/5/2 5/3/2 6/2/2
f 7/7/3 6/8/3 5/9/3
f 6/8/3 7/7/3 8/10/3
f 7/11/4 9/12/4 8/13/4
f 9/12/4 7/11/4 10/14/4
f 5/15/5 10/16/5 7/17/5
f 10/16/5 5/15/5 1/18/5
f 10/16/5 1/18/5 11/19/5
f 11/19/5 1/18/5 3/20/5
f 3/21/6 12/22/6 11/23/6
f 12/22/6 3/21/6 2/24/6
f 4/25/7 12/26/7 2/27/7
f 4/25/7 9/28/7 12/26/7
f 6/29/7 9/28/7 4/25/7
f 9/28/7 6/29/7 8/30/7
f 10/14/8 12/31/8 9/12/8
f 12/31/8 10/14/8 11/32/8
