# Blender 4.3.2
# www.blender.org
mtllib hex_building_collider.mtl
o HexColliderLarge
v 0.000000 -0.000000 -0.364500
v -0.315666 -0.000000 -0.182250
v -0.315666 0.000000 0.182250
v 0.000000 0.000000 0.364500
v 0.315666 0.000000 0.182250
v 0.315666 -0.000000 -0.182250
v 0.000000 1.000000 -0.364500
v -0.315666 1.000000 -0.182250
v -0.315666 1.000000 0.182250
v 0.000000 1.000000 0.364500
v 0.315666 1.000000 0.182250
v 0.315666 1.000000 -0.182250
vn -0.0000 -1.0000 -0.0000
vn -0.0000 1.0000 -0.0000
vn 0.5000 -0.0000 -0.8660
vn 1.0000 -0.0000 -0.0000
vn -0.5000 -0.0000 0.8660
vn -0.5000 -0.0000 -0.8660
vn 0.5000 -0.0000 0.8660
vn -1.0000 -0.0000 -0.0000
vt 1.000000 0.750000
vt 0.500000 0.000000
vt 0.000000 0.750000
vt 0.500000 1.000000
vt 1.000000 0.250000
vt 0.000000 0.250000
s 1
f 6/1/1 4/2/1 2/3/1
f 8/3/2 10/2/2 12/1/2
f 1/4/3 12/1/3 6/1/3
f 6/1/4 11/5/4 5/5/4
f 4/2/5 9/6/5 3/6/5
f 2/3/6 7/4/6 1/4/6
f 5/5/7 10/2/7 4/2/7
f 3/6/8 8/3/8 2/3/8
f 2/3/1 1/4/1 6/1/1
f 6/1/1 5/5/1 4/2/1
f 4/2/1 3/6/1 2/3/1
f 12/1/2 7/4/2 8/3/2
f 8/3/2 9/6/2 10/2/2
f 10/2/2 11/5/2 12/1/2
f 1/4/3 7/4/3 12/1/3
f 6/1/4 12/1/4 11/5/4
f 4/2/5 10/2/5 9/6/5
f 2/3/6 8/3/6 7/4/6
f 5/5/7 11/5/7 10/2/7
f 3/6/8 9/6/8 8/3/8
