# Blender 4.4.0
# www.blender.org
mtllib cone_2.mtl
o HexSmaller.277
v 0.000000 0.000000 -0.450000
v -0.389711 0.000000 -0.225000
v -0.389711 0.000000 0.225000
v 0.000000 0.000000 0.450000
v 0.389711 0.000000 0.225000
v 0.389711 0.000000 -0.225000
v 0.000000 0.900000 -0.450000
v -0.389711 0.900000 -0.225000
v -0.389711 0.900000 0.225000
v 0.000000 0.900000 0.450000
v 0.389711 0.900000 0.225000
v 0.389711 0.900000 -0.225000
v -0.433013 0.000000 -1.200000
v -0.822724 0.000000 -0.975000
v -0.822724 0.000000 -0.525000
v -0.433013 0.000000 -0.300000
v -0.043301 0.000000 -0.525000
v -0.043301 0.000000 -0.975000
v -0.433013 0.900000 -1.200000
v -0.822724 0.900000 -0.975000
v -0.822724 0.900000 -0.525000
v -0.433013 0.900000 -0.300000
v -0.043301 0.900000 -0.525000
v -0.043301 0.900000 -0.975000
v 0.433013 0.000000 -1.200000
v 0.043301 0.000000 -0.975000
v 0.043301 0.000000 -0.525000
v 0.433013 0.000000 -0.300000
v 0.822724 0.000000 -0.525000
v 0.822724 0.000000 -0.975000
v 0.433013 0.900000 -1.200000
v 0.043301 0.900000 -0.975000
v 0.043301 0.900000 -0.525000
v 0.433013 0.900000 -0.300000
v 0.822724 0.900000 -0.525000
v 0.822724 0.900000 -0.975000
v 0.000000 0.925486 -0.339750
v -0.294232 0.925486 -0.169875
v -0.294232 0.925486 0.169875
v 0.000000 0.925486 0.339750
v 0.294232 0.925486 0.169875
v 0.294232 0.925486 -0.169875
v 0.000000 0.997084 -0.339750
v -0.294232 0.997084 -0.169875
v -0.294232 0.997084 0.169875
v 0.000000 0.997084 0.339750
v 0.294232 0.997084 0.169875
v 0.294232 0.997084 -0.169875
vn -0.0000 -1.0000 -0.0000
vn -0.0000 1.0000 -0.0000
vn 0.5000 -0.0000 -0.8660
vn 1.0000 -0.0000 -0.0000
vn -0.5000 -0.0000 0.8660
vn -0.5000 -0.0000 -0.8660
vn 0.5000 -0.0000 0.8660
vn -1.0000 -0.0000 -0.0000
vt 1.000000 0.750000
vt 0.500000 0.000000
vt 0.000000 0.750000
vt 0.500000 1.000000
vt 1.000000 0.250000
vt 0.000000 0.250000
s 0
f 6/1/1 4/2/1 2/3/1
f 8/3/2 10/2/2 12/1/2
f 1/4/3 12/1/3 6/1/3
f 6/1/4 11/5/4 5/5/4
f 4/2/5 9/6/5 3/6/5
f 2/3/6 7/4/6 1/4/6
f 5/5/7 10/2/7 4/2/7
f 3/6/8 8/3/8 2/3/8
f 18/1/1 16/2/1 14/3/1
f 20/3/2 22/2/2 24/1/2
f 13/4/3 24/1/3 18/1/3
f 18/1/4 23/5/4 17/5/4
f 16/2/5 21/6/5 15/6/5
f 14/3/6 19/4/6 13/4/6
f 17/5/7 22/2/7 16/2/7
f 15/6/8 20/3/8 14/3/8
f 30/1/1 28/2/1 26/3/1
f 32/3/2 34/2/2 36/1/2
f 25/4/3 36/1/3 30/1/3
f 30/1/4 35/5/4 29/5/4
f 28/2/5 33/6/5 27/6/5
f 26/3/6 31/4/6 25/4/6
f 29/5/7 34/2/7 28/2/7
f 27/6/8 32/3/8 26/3/8
f 42/1/1 40/2/1 38/3/1
f 44/3/2 46/2/2 48/1/2
f 37/4/3 48/1/3 42/1/3
f 42/1/4 47/5/4 41/5/4
f 40/2/5 45/6/5 39/6/5
f 38/3/6 43/4/6 37/4/6
f 41/5/7 46/2/7 40/2/7
f 39/6/8 44/3/8 38/3/8
f 2/3/1 1/4/1 6/1/1
f 6/1/1 5/5/1 4/2/1
f 4/2/1 3/6/1 2/3/1
f 12/1/2 7/4/2 8/3/2
f 8/3/2 9/6/2 10/2/2
f 10/2/2 11/5/2 12/1/2
f 1/4/3 7/4/3 12/1/3
f 6/1/4 12/1/4 11/5/4
f 4/2/5 10/2/5 9/6/5
f 2/3/6 8/3/6 7/4/6
f 5/5/7 11/5/7 10/2/7
f 3/6/8 9/6/8 8/3/8
f 14/3/1 13/4/1 18/1/1
f 18/1/1 17/5/1 16/2/1
f 16/2/1 15/6/1 14/3/1
f 24/1/2 19/4/2 20/3/2
f 20/3/2 21/6/2 22/2/2
f 22/2/2 23/5/2 24/1/2
f 13/4/3 19/4/3 24/1/3
f 18/1/4 24/1/4 23/5/4
f 16/2/5 22/2/5 21/6/5
f 14/3/6 20/3/6 19/4/6
f 17/5/7 23/5/7 22/2/7
f 15/6/8 21/6/8 20/3/8
f 26/3/1 25/4/1 30/1/1
f 30/1/1 29/5/1 28/2/1
f 28/2/1 27/6/1 26/3/1
f 36/1/2 31/4/2 32/3/2
f 32/3/2 33/6/2 34/2/2
f 34/2/2 35/5/2 36/1/2
f 25/4/3 31/4/3 36/1/3
f 30/1/4 36/1/4 35/5/4
f 28/2/5 34/2/5 33/6/5
f 26/3/6 32/3/6 31/4/6
f 29/5/7 35/5/7 34/2/7
f 27/6/8 33/6/8 32/3/8
f 38/3/1 37/4/1 42/1/1
f 42/1/1 41/5/1 40/2/1
f 40/2/1 39/6/1 38/3/1
f 48/1/2 43/4/2 44/3/2
f 44/3/2 45/6/2 46/2/2
f 46/2/2 47/5/2 48/1/2
f 37/4/3 43/4/3 48/1/3
f 42/1/4 48/1/4 47/5/4
f 40/2/5 46/2/5 45/6/5
f 38/3/6 44/3/6 43/4/6
f 41/5/7 47/5/7 46/2/7
f 39/6/8 45/6/8 44/3/8
