# Blender 4.3.2
# www.blender.org
v 0.101910 1.000000 -0.380333
v 0.196875 -0.000000 -0.340997
v 0.101910 -0.000000 -0.380333
v 0.196875 1.000000 -0.340997
v 0.140625 1.000000 -0.243570
v 0.072793 1.000000 -0.271667
v 0.000000 1.000000 -0.393750
v 0.000000 1.000000 -0.281250
v -0.072793 1.000000 -0.271667
v -0.101910 1.000000 -0.380333
v -0.140625 1.000000 -0.243570
v -0.196875 1.000000 -0.340997
v -0.198874 1.000000 -0.198874
v -0.243570 1.000000 -0.140625
v -0.271667 1.000000 -0.072793
v -0.278423 1.000000 -0.278423
v -0.281250 1.000000 -0.000000
v -0.340997 1.000000 -0.196875
v -0.340997 -0.000000 -0.196875
v -0.278423 -0.000000 -0.278423
v -0.196875 -0.000000 -0.340997
v -0.101910 -0.000000 -0.380333
v 0.000000 -0.000000 -0.393750
v 0.101910 0.000000 0.380333
v 0.000000 0.000000 0.393750
v -0.101910 0.000000 0.380333
v -0.196875 0.000000 0.340997
v -0.278423 0.000000 0.278423
v -0.340997 0.000000 0.196875
v -0.380333 -0.000000 -0.101910
v -0.380333 0.000000 0.101910
v -0.393750 0.000000 0.000000
v -0.393750 1.000000 -0.000000
v -0.380333 1.000000 0.101910
v -0.340997 1.000000 0.196875
v -0.278423 1.000000 0.278423
v -0.196875 1.000000 0.340997
v -0.101910 1.000000 0.380333
v 0.000000 1.000000 0.393750
v 0.101910 1.000000 0.380333
v 0.196875 1.000000 0.340997
v 0.196875 0.000000 0.340997
v 0.278423 0.000000 0.278423
v 0.278423 -0.000000 -0.278423
v 0.278423 1.000000 -0.278423
v 0.198874 1.000000 -0.198874
v 0.140625 0.500000 -0.243570
v 0.198874 0.500000 -0.198874
v 0.198874 0.500000 0.198874
v 0.140625 0.500000 0.243570
v 0.072793 0.500000 -0.271667
v 0.072793 0.500000 0.271667
v 0.000000 0.500000 -0.281250
v 0.000000 0.500000 0.281250
v -0.072793 0.500000 -0.271667
v -0.072793 0.500000 0.271667
v -0.140625 0.500000 -0.243570
v -0.140625 0.500000 0.243570
v -0.198874 0.500000 -0.198874
v -0.198874 0.500000 0.198874
v -0.243570 0.500000 -0.140625
v -0.243570 0.500000 0.140625
v -0.271667 0.500000 -0.072793
v -0.271667 0.500000 0.072793
v -0.281250 0.500000 -0.000000
v -0.271667 1.000000 0.072793
v -0.243570 1.000000 0.140625
v -0.198874 1.000000 0.198874
v -0.140625 1.000000 0.243570
v -0.380333 1.000000 -0.101910
v -0.072793 1.000000 0.271667
v 0.000000 1.000000 0.281250
v 0.072793 1.000000 0.271667
v 0.140625 1.000000 0.243570
v 0.198874 1.000000 0.198874
v 0.278423 1.000000 0.278423
v 0.340997 0.000000 0.196875
v 0.340997 1.000000 0.196875
v 0.380333 0.000000 0.101910
v 0.380333 1.000000 0.101910
v 0.393750 0.000000 0.000000
v 0.393750 1.000000 -0.000000
v 0.380333 -0.000000 -0.101910
v 0.380333 1.000000 -0.101910
v 0.340997 -0.000000 -0.196875
v 0.340997 1.000000 -0.196875
v 0.281250 1.000000 -0.000000
v 0.271667 1.000000 -0.072793
v 0.243570 1.000000 -0.140625
v 0.243570 0.500000 -0.140625
v 0.243570 0.500000 0.140625
v 0.243570 1.000000 0.140625
v 0.271667 1.000000 0.072793
v 0.271667 0.500000 0.072793
v 0.281250 0.500000 -0.000000
v 0.271667 0.500000 -0.072793
vn 0.2588 -0.0000 -0.9659
vn 0.5000 -0.0000 -0.8660
vn -0.0000 1.0000 -0.0000
vn -0.7071 -0.0000 -0.7071
vn -0.8660 -0.0000 -0.5000
vn -0.5000 -0.0000 -0.8660
vn -0.2588 -0.0000 -0.9659
vn -0.0000 -0.0000 -1.0000
vn -0.0000 -1.0000 -0.0000
vn -0.9659 -0.0000 0.2588
vn -1.0000 -0.0000 -0.0000
vn -0.8660 -0.0000 0.5000
vn -0.7071 -0.0000 0.7071
vn -0.5000 -0.0000 0.8660
vn -0.2588 -0.0000 0.9659
vn -0.0000 -0.0000 1.0000
vn 0.2588 -0.0000 0.9659
vn 0.5000 -0.0000 0.8660
vn 0.7071 -0.0000 -0.7071
vn 0.9659 -0.0000 0.2588
vn 1.0000 -0.0000 -0.0000
vn 0.8660 -0.0000 0.5000
vn 0.7071 -0.0000 0.7071
vn 0.9659 -0.0000 -0.2588
vn 0.8660 -0.0000 -0.5000
vn -0.9659 -0.0000 -0.2588
vt -0.359336 0.250000
vt -0.587757 0.000000
vt -0.359336 0.000000
vt -0.587757 0.250000
vt 1.101470 1.720190
vt 1.187500 1.416270
vt 1.312500 1.632770
vt 1.036760 1.478700
vt 0.875000 1.750000
vt 0.875000 1.500000
vt 0.713238 1.478700
vt 0.648533 1.720190
vt 0.562500 1.416270
vt 0.437500 1.632770
vt 0.433058 1.316940
vt 0.333734 1.187500
vt 0.271296 1.036760
vt 0.256282 1.493720
vt 0.250000 0.875000
vt 0.117228 1.312500
vt -1.341060 0.250000
vt -1.112640 0.000000
vt -1.112640 0.250000
vt -1.341060 0.000000
vt -1.029030 0.250000
vt -1.257450 0.000000
vt -1.029030 0.000000
vt -1.257450 0.250000
vt -0.867514 0.250000
vt -1.095940 0.000000
vt -0.867514 0.000000
vt -1.095940 0.250000
vt -0.639093 0.250000
vt -0.639093 0.000000
vt -1.101470 0.029815
vt -0.875000 1.750000
vt -1.101470 1.720190
vt -0.875000 0.000000
vt -0.648533 1.720190
vt -0.648533 0.029815
vt -0.437500 1.632770
vt -0.437500 0.117228
vt -0.256282 1.493720
vt -0.256282 0.256282
vt -0.117228 1.312500
vt -0.117228 0.437500
vt -0.029815 1.101470
vt -0.029815 0.648533
vt 0.000000 0.875000
vt -0.047307 0.000000
vt -0.275728 0.250000
vt -0.275728 0.000000
vt -0.047307 0.250000
vt 0.047307 0.000000
vt 0.275728 0.250000
vt 0.047307 0.250000
vt 0.275728 0.000000
vt 0.359336 0.000000
vt 0.587757 0.250000
vt 0.359336 0.250000
vt 0.587757 0.000000
vt 0.639093 0.000000
vt 0.867514 0.250000
vt 0.639093 0.250000
vt 0.867514 0.000000
vt 1.095940 0.250000
vt 1.095940 0.000000
vt 1.029030 0.000000
vt 1.257450 0.250000
vt 1.029030 0.250000
vt 1.257450 0.000000
vt -1.312500 0.117228
vt -1.312500 1.632770
vt -1.493720 0.256282
vt -1.493720 1.493720
vt 1.316940 1.316940
vt 1.493720 1.493720
vt 0.079939 0.125000
vt 0.243097 0.250000
vt 0.079939 0.250000
vt 0.243097 0.125000
vt 1.316940 0.433058
vt 1.187500 0.333734
vt 1.036760 0.271296
vt 0.875000 0.250000
vt 0.713238 0.271296
vt 0.562500 0.333734
vt 0.433058 0.433058
vt 0.333734 0.562500
vt 0.271296 0.713238
vt 1.063300 0.125000
vt 0.900146 0.250000
vt 0.900146 0.125000
vt 1.063300 0.250000
vt 1.224820 0.125000
vt 1.061660 0.250000
vt 1.061660 0.125000
vt 1.224820 0.250000
vt 1.308430 0.125000
vt 1.145270 0.250000
vt 1.145270 0.125000
vt 1.308430 0.250000
vt 0.671725 0.125000
vt 0.834883 0.250000
vt 0.671725 0.250000
vt 0.834883 0.125000
vt 0.391968 0.125000
vt 0.555125 0.250000
vt 0.391968 0.250000
vt 0.555125 0.125000
vt -0.079939 0.250000
vt -0.243097 0.125000
vt -0.079939 0.125000
vt -0.243097 0.250000
vt 0.437500 0.117228
vt 0.256282 0.256282
vt 0.117228 0.437500
vt 0.029815 1.101470
vt 0.029815 0.648533
vt 0.648533 0.029815
vt 0.875000 0.000000
vt 1.101470 0.029815
vt 1.312500 0.117228
vt 1.493720 0.256282
vt 1.112640 0.000000
vt 1.341060 0.250000
vt 1.112640 0.250000
vt 1.341060 0.000000
vt 1.500000 0.875000
vt 1.632770 1.312500
vt 1.478700 1.036760
vt 1.416270 1.187500
vt 1.416270 0.562500
vt -1.145270 0.125000
vt -1.308430 0.250000
vt -1.308430 0.125000
vt -1.145270 0.250000
vt -1.224820 0.125000
vt -1.061660 0.250000
vt -1.224820 0.250000
vt -1.061660 0.125000
vt -1.063300 0.125000
vt -0.900146 0.250000
vt -1.063300 0.250000
vt -0.900146 0.125000
vt -0.834883 0.125000
vt -0.671725 0.250000
vt -0.834883 0.250000
vt -0.671725 0.125000
vt -0.555125 0.125000
vt -0.391968 0.250000
vt -0.555125 0.250000
vt -0.391968 0.125000
vt 1.478700 0.713238
vt 1.632770 0.437500
vt 1.720190 0.648533
vt 1.720190 1.101470
vt 1.750000 0.875000
vt -1.632770 0.437500
vt -1.632770 1.312500
vt -1.720190 0.648533
vt -1.720190 1.101470
vt -1.750000 0.875000
s 1
f 1/1/1 2/2/2 3/3/1
f 2/2/2 1/1/1 4/4/2
f 1/5/3 5/6/3 4/7/3
f 1/5/3 6/8/3 5/6/3
f 7/9/3 6/8/3 1/5/3
f 7/9/3 8/10/3 6/8/3
f 7/9/3 9/11/3 8/10/3
f 10/12/3 9/11/3 7/9/3
f 10/12/3 11/13/3 9/11/3
f 12/14/3 11/13/3 10/12/3
f 12/14/3 13/15/3 11/13/3
f 12/14/3 14/16/3 13/15/3
f 12/14/3 15/17/3 14/16/3
f 16/18/3 15/17/3 12/14/3
f 16/18/3 17/19/3 15/17/3
f 17/19/3 16/18/3 18/20/3
f 16/21/4 19/22/5 18/23/5
f 19/22/5 16/21/4 20/24/4
f 16/23/4 21/24/6 20/22/4
f 21/24/6 16/23/4 12/21/6
f 12/25/6 22/26/7 21/27/6
f 22/26/7 12/25/6 10/28/7
f 10/29/7 23/30/8 22/31/7
f 23/30/8 10/29/7 7/32/8
f 7/33/8 3/31/1 23/34/8
f 3/31/1 7/33/8 1/29/1
f 24/35/9 23/36/9 3/37/9
f 25/38/9 23/36/9 24/35/9
f 25/38/9 22/39/9 23/36/9
f 26/40/9 22/39/9 25/38/9
f 26/40/9 21/41/9 22/39/9
f 27/42/9 21/41/9 26/40/9
f 27/42/9 20/43/9 21/41/9
f 28/44/9 20/43/9 27/42/9
f 28/44/9 19/45/9 20/43/9
f 29/46/9 19/45/9 28/44/9
f 29/46/9 30/47/9 19/45/9
f 31/48/9 30/47/9 29/46/9
f 30/47/9 31/48/9 32/49/9
f 31/34/10 33/29/11 32/31/11
f 33/29/11 31/34/10 34/33/10
f 29/3/12 34/4/10 31/2/10
f 34/4/10 29/3/12 35/1/12
f 28/50/13 35/51/12 29/52/12
f 35/51/12 28/50/13 36/53/13
f 28/54/13 37/55/14 36/56/13
f 37/55/14 28/54/13 27/57/14
f 27/58/14 38/59/15 37/60/14
f 38/59/15 27/58/14 26/61/15
f 26/62/15 39/63/16 38/64/15
f 39/63/16 26/62/15 25/65/16
f 25/65/16 40/66/17 39/63/16
f 40/66/17 25/65/16 24/67/17
f 24/68/17 41/69/18 40/70/17
f 41/69/18 24/68/17 42/71/18
f 24/35/9 3/37/9 42/72/9
f 42/72/9 3/37/9 2/73/9
f 42/72/9 2/73/9 43/74/9
f 43/74/9 2/73/9 44/75/9
f 4/53/2 44/52/19 2/50/2
f 44/52/19 4/53/2 45/51/19
f 4/7/3 46/76/3 45/77/3
f 4/7/3 5/6/3 46/76/3
f 47/78/14 46/79/13 5/80/14
f 46/79/13 47/78/14 48/81/13
f 47/6/3 49/82/3 48/76/3
f 47/6/3 50/83/3 49/82/3
f 51/8/3 50/83/3 47/6/3
f 51/8/3 52/84/3 50/83/3
f 53/10/3 52/84/3 51/8/3
f 53/10/3 54/85/3 52/84/3
f 55/11/3 54/85/3 53/10/3
f 55/11/3 56/86/3 54/85/3
f 57/13/3 56/86/3 55/11/3
f 57/13/3 58/87/3 56/86/3
f 59/15/3 58/87/3 57/13/3
f 59/15/3 60/88/3 58/87/3
f 61/16/3 60/88/3 59/15/3
f 61/16/3 62/89/3 60/88/3
f 63/17/3 62/89/3 61/16/3
f 63/17/3 64/90/3 62/89/3
f 64/90/3 63/17/3 65/19/3
f 63/91/20 17/92/21 65/93/21
f 17/92/21 63/91/20 15/94/20
f 61/95/22 15/96/20 63/97/20
f 15/96/20 61/95/22 14/98/22
f 59/99/23 14/100/22 61/101/22
f 14/100/22 59/99/23 13/102/23
f 59/101/23 11/102/18 13/100/23
f 11/102/18 59/101/23 57/99/18
f 57/97/18 9/98/17 11/96/18
f 9/98/17 57/97/18 55/95/17
f 55/93/17 8/94/16 9/92/17
f 8/94/16 55/93/17 53/91/16
f 53/103/16 6/104/15 8/105/16
f 6/104/15 53/103/16 51/106/15
f 51/107/15 5/108/14 6/109/15
f 5/108/14 51/107/15 47/110/14
f 66/105/24 65/106/21 17/104/21
f 65/106/21 66/105/24 64/103/24
f 67/109/25 64/110/24 66/108/24
f 64/110/24 67/109/25 62/107/25
f 68/80/19 62/81/25 67/79/25
f 62/81/25 68/80/19 60/78/19
f 68/111/19 58/112/2 60/113/19
f 58/112/2 68/111/19 69/114/2
f 68/88/3 37/115/3 69/87/3
f 67/89/3 37/115/3 68/88/3
f 66/90/3 37/115/3 67/89/3
f 66/90/3 36/116/3 37/115/3
f 17/19/3 36/116/3 66/90/3
f 18/20/3 36/116/3 17/19/3
f 18/20/3 35/117/3 36/116/3
f 70/118/3 35/117/3 18/20/3
f 70/118/3 34/119/3 35/117/3
f 34/119/3 70/118/3 33/49/3
f 70/32/26 32/31/11 33/29/11
f 32/31/11 70/32/26 30/30/26
f 18/28/5 30/27/26 70/25/26
f 30/27/26 18/28/5 19/26/5
f 69/87/3 37/115/3 38/120/3
f 69/87/3 38/120/3 71/86/3
f 71/86/3 38/120/3 39/121/3
f 71/86/3 39/121/3 72/85/3
f 72/85/3 39/121/3 40/122/3
f 72/85/3 40/122/3 73/84/3
f 73/84/3 40/122/3 74/83/3
f 74/83/3 40/122/3 41/123/3
f 74/83/3 41/123/3 75/82/3
f 75/82/3 41/123/3 76/124/3
f 42/125/18 76/126/23 41/127/18
f 76/126/23 42/125/18 43/128/23
f 77/128/22 76/127/23 43/125/23
f 76/127/23 77/128/22 78/126/22
f 79/71/20 78/70/22 77/68/22
f 78/70/22 79/71/20 80/69/20
f 81/67/21 80/63/20 79/65/20
f 80/63/20 81/67/21 82/66/21
f 83/65/24 82/64/21 81/62/21
f 82/64/21 83/65/24 84/63/24
f 85/61/25 84/60/24 83/58/24
f 84/60/24 85/61/25 86/59/25
f 44/57/19 86/56/25 85/54/25
f 86/56/25 44/57/19 45/55/19
f 45/77/3 87/129/3 86/130/3
f 45/77/3 88/131/3 87/129/3
f 45/77/3 89/132/3 88/131/3
f 45/77/3 46/76/3 89/132/3
f 46/114/13 90/113/12 89/111/12
f 90/113/12 46/114/13 48/112/13
f 48/76/3 91/133/3 90/132/3
f 48/76/3 49/82/3 91/133/3
f 49/134/4 92/135/5 91/136/5
f 92/135/5 49/134/4 75/137/4
f 49/136/4 74/137/6 75/135/4
f 74/137/6 49/136/4 50/134/6
f 50/138/6 73/139/7 74/140/6
f 73/139/7 50/138/6 52/141/7
f 52/142/7 72/143/8 73/144/7
f 72/143/8 52/142/7 54/145/8
f 54/146/8 71/147/1 72/148/8
f 71/147/1 54/146/8 56/149/1
f 56/150/1 69/151/2 71/152/1
f 69/151/2 56/150/1 58/153/2
f 75/82/3 76/124/3 92/133/3
f 92/133/3 76/124/3 93/154/3
f 93/154/3 76/124/3 87/129/3
f 87/129/3 76/124/3 78/155/3
f 86/130/3 87/129/3 78/155/3
f 86/130/3 78/155/3 80/156/3
f 86/130/3 80/156/3 84/157/3
f 84/157/3 80/156/3 82/158/3
f 87/144/11 94/145/26 93/143/26
f 94/145/26 87/144/11 95/142/11
f 88/148/10 95/149/11 87/147/11
f 95/149/11 88/148/10 96/146/10
f 89/152/12 96/153/10 88/151/10
f 96/153/10 89/152/12 90/150/12
f 90/132/3 94/154/3 96/131/3
f 90/132/3 91/133/3 94/154/3
f 91/141/5 93/140/26 94/138/26
f 93/140/26 91/141/5 92/139/5
f 96/131/3 94/154/3 95/129/3
f 77/159/9 44/75/9 85/160/9
f 43/74/9 44/75/9 77/159/9
f 77/159/9 85/160/9 79/161/9
f 79/161/9 85/160/9 83/162/9
f 79/161/9 83/162/9 81/163/9
